<svg xmlns="http://www.w3.org/2000/svg" xmlns:xlink="http://www.w3.org/1999/xlink" width="24" height="24" viewBox="0 0 24 24">
  <defs>
    <style>
      .cls-1 {
        fill: none;
      }

      .cls-2 {
        fill: url(#radial-gradient);
      }

      .cls-3, .cls-8 {
        fill: #2e2e29;
      }

      .cls-4 {
        clip-path: url(#clip-path);
      }

      .cls-5 {
        fill: #4f5238;
      }

      .cls-5, .cls-6, .cls-7, .cls-8 {
        fill-rule: evenodd;
      }

      .cls-6 {
        fill: #3d3b2b;
      }

      .cls-7 {
        fill: #737357;
      }

      .cls-9 {
        fill: url(#linear-gradient);
      }

      .cls-10 {
        fill: #22221e;
      }

      .cls-11 {
        fill: #b6b6b6;
      }

      .cls-12 {
        fill: #ccc;
      }

      .cls-13 {
        fill: #bdbebc;
      }

      .cls-14 {
        fill: #fff;
      }
    </style>
    <radialGradient id="radial-gradient" cx="0.5" cy="0.5" r="0.5" gradientUnits="objectBoundingBox">
      <stop offset="0" stop-color="#ede0ce"/>
      <stop offset="1" stop-color="#eccba5"/>
    </radialGradient>
    <clipPath id="clip-path">
      <path id="패스_33602" data-name="패스 33602" class="cls-1" d="M47.41,32.777a1.746,1.746,0,0,0-1-1.575V28.527a11,11,0,0,0-22,0V31.2a1.744,1.744,0,0,0-1,1.575v.458c0,1.6,5.372,2.9,12,2.9s12-1.3,12-2.9Z"/>
    </clipPath>
    <linearGradient id="linear-gradient" x1="0.5" x2="0.756" y2="0.21" gradientUnits="objectBoundingBox">
      <stop offset="0" stop-color="#fff"/>
      <stop offset="1" stop-color="#b7b7b7"/>
      <stop offset="1" stop-color="#9b9b9b"/>
    </linearGradient>
  </defs>
  <g id="그룹_10337" data-name="그룹 10337" transform="translate(-649 -262)">
    <g id="그룹_8879" data-name="그룹 8879" transform="translate(625.59 244.473)">
      <path id="사각형_11791" data-name="사각형 11791" class="cls-2" d="M24.91,30.527h21v2a9.234,9.234,0,0,1-9.45,9h-2.1a9.234,9.234,0,0,1-9.45-9v-2Z"/>
      <rect id="사각형_11794" data-name="사각형 11794" class="cls-3" width="5" height="1.2" rx="0.45" transform="translate(32.91 38.527)"/>
      <g id="그룹_8878" data-name="그룹 8878">
        <g id="그룹_8877" data-name="그룹 8877" class="cls-4">
          <g id="그룹_8876" data-name="그룹 8876">
            <path id="패스_33598" data-name="패스 33598" class="cls-5" d="M47.41,14.083h-27v27h27v-27Z"/>
            <path id="패스_33599" data-name="패스 33599" class="cls-6" d="M43.246,14.284c.54.016,1.106-.338,1.725-.1a2.2,2.2,0,0,0,1.376-.042,2.866,2.866,0,0,1,.53-.045c.074,0,.119,0,.1.02h0c.529.867-.538.913-.226,1.789a.664.664,0,0,1-.413.932,8.173,8.173,0,0,1-1.373.292c-.832.231-.278.71-2.006.648-.579-.02-1.22-.728-1.9-.859-.116-.022-1.654-1.634-1.13-2.073a1.155,1.155,0,0,1,.748-.171c.538.049.878.362,1.366.273.579-.107,1.017-.671,1.2-.666ZM40.515,37.24h0l.064.018h0l.065.019h0l-.129-.037Zm-20.1,3.2a24.124,24.124,0,0,1,3.723-1.012c1.245-.11,2.175.557,2.666.557.39,0,1.317.022,1.241-.709-.054-.519-1.247-.423-1.519-.217-.071.053-1.869.386-1.445-.789a.678.678,0,0,0-.516-.9.973.973,0,0,0-.257-.034c-2.845,0-2.932-.026-3.893,3.1ZM31.817,14.083h6.8a.9.9,0,0,1,.228,1.759c-.591.1-.538-.093-.865-.142a2.453,2.453,0,0,0-.776.39c-.34.289-1.335-.452-1.573-.452-1.38,0-.547.7-2.013.961-.938.166-.731-.406-.876-.926-.072-.259-.727.184-.727-.525a.3.3,0,0,0-.028-.135c-.132-.262-.685-.127-.911-.154-.058-.007-.137-.158-.145-.308s.065-.321.335-.3a.9.9,0,0,0,.551-.171ZM47.41,18.988v1.783c-.769-.425-1.014-1.52-.5-1.661.017-.094.217-.125.5-.122Zm0,4.593v.688c-.22-.075-.569.123-.735.278-.9.843-2.179-.623-2.179,1.29,0,1.028-.861.257-1.319,1.223-.6,1.267-2.065-.059-2.308-.212a4.484,4.484,0,0,1-.959-.7c-.647-.491-.852-.081-1.185.14-.391.261-.835.422-.571.905.029.052.053.1.075.148.464,1.019-.627.968-.888.841-2.27-1.108-1.7.366-2.122.658-.769.539-1.2.5-1.394.253-.3-.386-.028-1.28.442-1.281,1.4,0,.306-1.589-1.156-.958-1.57.678-1.63.118-2.684-.035l-.068-.009c-1.292-.157-1.06.8-.6.967,2.355.843-.624,1.664-1,.607-.395-1.111-1.356-.763-1.326-1.656.053-1.586-1.576-.988-2.708-.68-.57.155-1.014.237-1.053-.073a2.181,2.181,0,0,1,0-.626,5.22,5.22,0,0,1,1.721-2.278,1.594,1.594,0,0,1,1.518-.06c.182.094-.212,1.033.428.783,1.014-.4,2.211.894,2.3.134.106-.861-.181-1.678.784-1.688.411,0,.755.8,1.686.748a4.067,4.067,0,0,1,2.834.54,8,8,0,0,1,1.154,1.166c1.064,1.175,2.822-.726,2.9-.847.435-.671.843-.7,2.078-.723.166,0,1.244-.014.522-.623-.458-.386-1.091-.112-1.6-.036-1.39.21-1.388-.928-1-1.111a.475.475,0,0,1,.486,0c.308.168.584.526,1.819-.328a1.354,1.354,0,0,1,1.693.065c.777.783,3.8-.569,3.724,1.044-.023.522-1.576.426-.691,1.285.385.374.861.214,1.385.157Zm0,5.987v2.68a1.121,1.121,0,0,0-.332.476c-.218.468-1.019.785-1.263.549a.637.637,0,0,1-.012-.892c.146-.212.714-.328.7-.607-.023-.535-.571-.433-.862-.444a1.865,1.865,0,0,1-.436-.048c-.162-.05-.133-.139-.39-.3-.561-.343-.839-.078-1.279-.071-.314,0-.8-.043-.884-.507-.136-.786.851-.875,1.287-.876h.009a3.4,3.4,0,0,1,1.087.486c.41.271.828.015,1.233-.108.388-.117.752-.23,1.14-.342Zm-2.814,9c-.446-.536-1.249-.387-1.635-.959-.792-1.171-.621-.273-1.472-.055-1.367.352-2.572.277-1.595.861,1.113.665.994-.014,2.035.006.32.007.4-.344,1.353,0,2.3.828-2.021.878-2.258,1.662-.224.739-1.27.425-1.7.213a2.161,2.161,0,0,0-.968.112c-.344.115-.165.614.177.665l.082.014H31.829c.529-.324.694-1.106.023-1.129-.767-.027-.454-.268-.646-.446-.712-.66-.5-.3-1.109.03-.066.036-.386.236-.39.237-.5.1-.581-.28-.853-.621-.357-.45.034-.711.407-.7,1.434-2.86-2.569-1.594-2.838-1.932A3.754,3.754,0,0,0,26,36.054c-1.118-1-1.585.342-1.984.324-1.928-.09-2.021-1.14-1.607-1.619a.577.577,0,0,1,.768-.147c2.116,1.338,1.212.1,2.675-.3,1.078-.3,2.209,1.6,3.2.662,1.3-1.218,3.351.236,3.4-.88.067-1.608-1-.061-1.428-.567-.619-.733.121-1.141.3-.969.582.574,1.978.034,2.851-.06.855-.091,1.142-.07,2.068.99.619.179,1.256-.5,2.176-.071,1.016.474.673,1.189.134,1.61-.115.09,2.07-1.7,2.465-1.492,1.538.811-2.626,1.883,1.93,1.2,1.933-.291.259.615,1.448.573.15-.006.579.836.892,1.147a3.369,3.369,0,0,0,2.088.44c.113-.016-.048.168-.071.275-.3,1.383.025,4.677-2.7,1.4ZM20.41,32.248v-2.68l.1-.028c.665-.189.628.107.843.5a1.113,1.113,0,0,0,1.273.321c1.035-.5,1.346-.156,2.2.011a.4.4,0,0,1,.223.148c.092.107.153.233.213.242.208.033-.027.43.069.574.334.5.334.266.887.266.2,0,.571.25.563.529,0,.089-.006.159-.011.214-.036.391-.152.038-.582.552-.565.675-.442.261-1.031.451a2.6,2.6,0,0,1-1.054-.1c-.348-.224-.741-.639-1.172-.542-.5.113-.23.409-.979.3-.6-.09-.412-.667-.9-.783a.782.782,0,0,0-.644.032Zm0-7.979v-.688a1.568,1.568,0,0,1,1.2.281c.56.419,1.8-.879,1.74.077-.03.5-.8-.006-1.339.662a1.657,1.657,0,0,1-.17.181.675.675,0,0,1-.972.071,1.335,1.335,0,0,1-.31-.443.256.256,0,0,0-.151-.141Zm0-3.5V18.988c.654.007,1.746.2,2,.2.786,0,.721-.264,1.11-.439.05-.248.407-.681.776-.584,3.2.843-.176-2.59-.858-1.861-.216.231-.316-.123-.778.058a9.257,9.257,0,0,1-1.376-.991c0-.824,1.728-.961,2.541-.879.365.037,1.5-.112,2.171-.1,2.985.049,2.452.878,2.5,1.037.125.4-1.2.7-.952,1.514a.9.9,0,0,0,1.465.52c.735-.622,2.146-.151,1.932.42-.511,1.358,1.182,1.3,1.421.881a.928.928,0,0,1,1.282-.089,1.6,1.6,0,0,0,.193.178c.507.388.786-.066,1.646.055a.547.547,0,0,1,.418.856c-.168.319-.587,1.024-1.114.819-.673-.262-1.435.329-2.259-.312-.85-.661-1.845.756-2.716.06a.449.449,0,0,0-.159-.08,1.727,1.727,0,0,0-1.193.215c-.834.689-1.47-.287-1.814-.374-.5-.128-.721.183-1.148.274a.925.925,0,0,0-.228-.039,1.044,1.044,0,0,1-.161.053,1.778,1.778,0,0,1-.285-.062c-1.329-.4-1.446-.007-2.478.5-.068.033-.141.067-.218.1-.947.417-.873.255-1.629-.093-.03-.014-.06-.029-.089-.046Zm19.339,8.613c-.23.1-.489-.089-1.09.292a1.245,1.245,0,0,1-1.08.178c-.285-.056-1.067-.112-1.067.389,0,.788.487,1.013.923.373.6-.882.357.091,1.543.074.224,0,1.27-.136,1.026.473-.119.3-.849.2-.635.725.138.339.387-.1.643-.107,1.275-.058.492-.142,1.173-.159a4.545,4.545,0,0,1,.774.15c.356.2,1.146-.4.793-.751-.284-.282-.6.558-1.261-.3-.53-.685,1.281-.574.816-1.273-.25-.375-.993.35-1.019.351-.676.04-.448-.3-.877-.341-.121-.013-.386,0-.474-.069a1.439,1.439,0,0,0-.188-.009Z"/>
            <path id="패스_33600" data-name="패스 33600" class="cls-7" d="M20.41,14.083h.236c-.083,0-.161,0-.236,0Zm5.237,0h2.174c-.641.293-.8.913-2,.558-.857-.254-.706.631-1.437.536-.3-.038-.171-.7.118-.732a2.208,2.208,0,0,0,1.144-.362Zm3.194,0h1.321a.335.335,0,0,1,.058.2c-.007.228-.253.437-.684.271a1.266,1.266,0,0,1-.242-.125,4.254,4.254,0,0,1-.453-.347ZM47.41,18.958v.805a1.24,1.24,0,0,0-.474.542l-.006.013c-.42.786-2.278-.014-2,.976.006.021.012.043.02.065a2.473,2.473,0,0,1,.1.381.8.8,0,0,1-.143.746.657.657,0,0,1-.7.1c-.208-.084-.331-.251-.18-.408.023-.024.044-.046.063-.068.648-.731-.511-.553-.516-.552-.642.168-.7-.384-1.263-.4-.53-.012-1.053.455-1.286.433-.385-.036-.335.059-.646.252-.182.455.38,1.372.445,1.619.179.688.023.686-.165,1.009l-.006.009c-.493.849-.358,1.316-.131,1.653.255.38.628.594.351,1-.295.436.212.81.405.846.259.05.843-.657,1.108-.163.572,1.066-.345.887-.438.826-.433-.282-1.754.341-2.094.632a1.354,1.354,0,0,1-.121.093c-.71.479-.123,1.254-1.435.834-.051-.017-.365-.415-.724-.353s-.778.637-1.015.772a.79.79,0,0,1-.379.112c-2.234.033-1.672-1.566-.8-1.517,1.121.062,1.318-.45,2.576-.45,2.1,0,.874-1.274.376-1.255H38.3a1.633,1.633,0,0,0-.073-.192,1.706,1.706,0,0,0-.385.08c-.337-.252-.068-.861.249-1.171a.618.618,0,0,1,.307-.186l.018,0c.242-.044.405-.2.411-.331,0-.1-.09-.187-.319-.187q-.07,0-.138-.006a.707.707,0,0,1-.646-.379.743.743,0,0,1,.116-.647l.019-.032c.5-.812-.321-.712-.773-.712s-.486-1.073-.083-1.113c1.848-.181.66-1.656-.317-1.285-.769.293-1.168-.846-3.217-.155-1.388.468-1-.045-1.94-.506A2.18,2.18,0,0,1,31,20.351c-.885-.825,1.306-.651,2.509.03.557.316,1.413-.6,1.551-.638a3.994,3.994,0,0,0,.558-.193c.141-.061.25-.117.366-.165,1.1-.45,2.485-.718,3.4.364.231.274.71.165.976.3a2.6,2.6,0,0,0,2.7-.076c.417-.273-.066-.862.762-.936,1.329-.12.445-.847.44-.849-1.2-.433-1.328.222-1.935.007-.912-.324-1.486-1.133-1.791-.693-.428.616-1.37-.13-2.094,0-.32.058-.683.566-.976.678a2.584,2.584,0,0,1-.287.094,1.266,1.266,0,0,1-1.3-.233c-.326-.341-.261-.849.168-.849.612,0,1.131-.636,1.5-.249.521.548,1.542.226,1.209-.468a1.175,1.175,0,0,0-1.162-.659c-.285-.013-.29-.18-.492-.211-.458-.069-.382-.576-.312-.684.329-.5,1.667.223,2.111.521L39,15.5c.062.038.129.075.2.111.5.251,1.186.422,1.586,0a.794.794,0,0,0,.174-.13c.452-.6,1.429.254,1.065.633-.875.911,1.989.762,2.242,1.44.559.794,1.245.262,1.542.449a9.373,9.373,0,0,0,1.6.949Zm0,4.081v2.574a.25.25,0,0,0-.144-.127c-.5-.225-.463-.777-.288-.891.212-.137.268-.263.231-.355-.056-.143-.334-.207-.594-.116-.653.228-.922-.4-.63-.659.019-.017.037-.033.056-.048a1.5,1.5,0,0,1,1.369-.378Zm0,2.671v2.139a1.4,1.4,0,0,0-.026-.181c-.03-.138-.076-.2-.134-.232-.159-.076-.4.149-.61.017-.377-.239-.555-.539-.773-.556-.194-.016-.423.24-.823.24-1.065,0-1.543-.842-.9-1.14a13.011,13.011,0,0,1,2.409.122,1.019,1.019,0,0,0,.854-.409Zm0,8.342V35.12c-.149-.041-.294-.085-.385-.03-.059.036-.1.113-.1.259,0,.286,0,.222-.4.254-.325.026-.406-.178-.852-.178s-.213.628-.252.745c-.006.019-.117.215-.145.269l0,.007c-.217.412-1.082.906-1.041.23,0-.03.049-.067.108-.11.138-.1.48-.491.3-.605-.381-.236-.7-.1-.961-.161-1.386-.305-1.378,1.153-2.282.383-.184-.157-.327-.952-.852-1.025s-.471-.612-.746-.61c-.419,0-.773.635-.925.629-.654-.026-1.3-2.026-.339-1.7.307.1.666.014,1.1.138.94.268,1.347,1.021,2.344,1.252a1.838,1.838,0,0,0,1.23-.171c.348-.287.28-1,.272-1.037-.017-.087-.771-.695.271-.712.318-.006.994,1.472,1.645,1.142.442-.225.176-.654.44-.808a.562.562,0,0,1,.285-.057.789.789,0,0,1,.072.109.406.406,0,0,1-.032.457.267.267,0,0,0,.157.4c.393.084.694-.171,1.093-.132Zm0,5.43v1.6a2.313,2.313,0,0,1-.468-.061c-.673-.164-.867-.617-.791-.972a.562.562,0,0,1,.529-.476,2.3,2.3,0,0,0,.73-.092Zm-17.248,1.6H28.841a.7.7,0,0,0-.19-.137,1.715,1.715,0,0,0-.83.137H25.647c.679-.534-.125-1.4-.9-1.193-1.192.327-.875.04-1.727.04a1.735,1.735,0,0,0-.652.121c-.718.285-1.05.976-1.491,1.017-.082.008-.16.013-.235.015H20.41v-1.6c.364-.123.4-.329.776-.359,1.753-.146.623-.135,2.035-.709a1.735,1.735,0,0,1,.309-.086c.553-.106,1.415-.084,1.635.322l.009,0c.953.23.672-.066,1.006-.286.162-.107,1.274.492,1.3.118.054-.92-1.083.067-1.1-.693-.025-1.032,1.122-.409,1.5-.133.407.3,2.075.775,1.982-.192-.11-1.144.186-.61.2-1.044.043-1.43-1.022-.43-1.7-.43-1.813,0-2.123-1.224-1.711-1.592a.508.508,0,0,1,.587-.024c1.65.8,1.635-.255,2.415-.255,1.022,0,.644-.776.509-.872-.584-.415-.316-.462-.688-.761-.439-.355-1.96.189-2.2-.374a.42.42,0,0,1-.031-.13c-.081-1,.38-1.008.951-.993.084,0,.17,0,.257,0,.836,0,2.2,1.737,3.136,1.184.254-.151,1.426-.689,1.688-.468a1.7,1.7,0,0,0,1.426,0c.3-.387,1.294-.392,1.132.259-.241.968-.69-.4-1.726.452a.1.1,0,0,0-.031.045,2.441,2.441,0,0,0-.392,1.139c.037.781.4,1.608-.3,1.4a1.168,1.168,0,0,0-1.417.487,1.214,1.214,0,0,0-.182.558c-.012.227.061.412.219.462a.59.59,0,0,1,.35.839c-.044.108-.1.181-.149.179-1.4-.068-1.482.416-1.045.64.315.161,1.5-.15,1.509.424.021,1.568-1.279-1.212-1.445,1.044-.025.349-1.068.285-1.315.165-.149-.071-.358-.2-.423-.023-.145.4-.625.36-.618.574.011.327.695.5.912.523a.513.513,0,0,1,.4.2ZM20.41,35.12V34.052a1.269,1.269,0,0,1,.747.41c.435.417.716.233,1.192.182.065-.007.131-.015.194-.02a.5.5,0,0,1,.262.033c.092.051.14.164.1.4-.049.289-.387.384-.691.36a.864.864,0,0,1-.393-.118c-.3-.2-.624-.535-.972-.191a.226.226,0,0,1-.048.035c-.1,0-.207,0-.312,0l-.08-.022Zm0-7.271V25.71a.147.147,0,0,0,0-.1V23.039c.717.158,1.275.735,1.6.452,1.453-1.267,1.571.2,1.941.215,1.559.061.257-1.222.209-1.445-.267-1.238.673-1.173,1.439-1.129.128.008.251.014.363.014.5,0,1.455-.733,1.572,0a.863.863,0,0,1,0,.276c-.128.724-1.544-.005-1.544.956,0,.36.52,1.2-.08,1.184-1.1-.032-.9,1.1-.466,1.225.53.153.693.358.654.533-.064.29-.678.5-1.079.256-.806-.486-.865.007-1.26-.148l-.03-.011-.079-.029c-1.571-.556-1.732.728-1.489,1.422a.8.8,0,0,0,.212.351c1.247,1.033.071,1.026.08,1.255.046,1.283,1.127.275,1.495,1.172a.85.85,0,0,1,.085.534c-.426.873-1.383.227-1.7.5-.913.537-1.495-.125-.912-.475.256-.147.676-.109.524-.463-.692-1.611-1.546-.807-1.534-1.429,0-.162,0-.294-.009-.4Zm0-8.086v-.805h0a1.741,1.741,0,0,0,1.046.089,1.65,1.65,0,0,0,.44-.182c.706-.415,1.224-.345,1.514-.092a.778.778,0,0,1,.194.916c-.008.017-.016.033-.025.049-.361.662-1.117.273-1.881.035a1.6,1.6,0,0,0-1.29-.011ZM25.165,38.65h0c-.122-.044-.031-.012,0,0Zm2.751-13.933a3.329,3.329,0,0,0,.443.573c1.061,1.319,2.508.8,2.334.2a.1.1,0,0,1,.031-.111.441.441,0,0,1,.459-.081c.509.135,1.231.707,1.985.476.856-.263.659-.746.561-1.287-.211-1.17-2.194-.234-2.294-.8a.213.213,0,0,1,0-.057c.032-.984-.866-.694-.761-.186.2.993-.563.994-.665,1.1a1.922,1.922,0,0,1-.832.511c-.72.129-.573-.753-1-.738-.355.013-.364.194-.262.4Zm1.656,3.509c.638.01.182-.448,1.144.128.22.131-.037.656.2.777a4.613,4.613,0,0,0,.808.268c.308.029,1.786-.894,2.188-.493.546.543.165,1.609-.945,1.066-.95-.464-.608.863-1.1.908-.888.082.062-.641.067-.665.09-.49-.427-.426-.676-.426-.275,0-.89.451-1.366.4-.768-.085-1.7-1.961-.32-1.961Zm9.16-12.674h0Z"/>
            <path id="패스_33601" data-name="패스 33601" class="cls-8" d="M45.543,14.083c.027.035.059.072.1.115s.7.4.22.706c-.63.392-.932-.791-1.349-.777-.859.027-.16.84-1.186.542-.4-.115-.577.215-1.012.547-.357.245-1.935-.869-1.81.331.032.315.885.369,1.2.117a.846.846,0,0,1,1.013.026c.329.363,2.4-.291,1.875.688,0,.006-.723.448-.269.679.61.31.274-.918,1.96-.27.628.241.931.182,1.131.04V14.083Zm-25.133,0h2.659a1.448,1.448,0,0,0-.054.261c-.1.836-.669.375-.516,1.241a.464.464,0,0,0,.516.32c1.059-.155.677.747.36.757-1.07.037-1.2-.333-2.24-.333-.382,0-.47.317-.725.5V14.083Zm3.922,0h.253a.554.554,0,0,1-.253,0Zm7.809,0h5.347c.493,1.1,1.54.3,1.643.9.224,1.3-1.733-.061-2.3.127-1.012.335-2.678-.529-2.9.22-.27.927-.87.54-.7.2.387-.775-.925-.755-1.106-.635-.956.637-1.62-.159-1.974.157-1.075.957-1.285-1.625.008-.807a1.5,1.5,0,0,0,1.114.251c.391.02.418-.085.441-.11a1.054,1.054,0,0,1,.427-.3ZM47.41,26v.742a2.551,2.551,0,0,0-.288-.071c-.6-.256-1,.3-1.289-.018-.3-.337-.628.027-.764.032-1.13.044-.5-.644.238-.481a2.4,2.4,0,0,0,1.966-.159A.565.565,0,0,1,47.41,26Zm0,1.127v.567c-.137-.111-.226-.3-.106-.434.043-.049.077-.093.106-.133Zm0,2.768v.6a1.6,1.6,0,0,1-.534.051c-.636-.033-.07.733-1.385.68-1.005-.041-.08,1.506-.879,1.537-.353.013-1.1.172-.627-.668.02-.035,1.005-.6-.01-.514-1.379.118-.984-.441-1.932.459-.852.809-3.044-.528-.637-.528.685,0-.677-.765-.869-1.119-.24-.443.3-1.009.672-.671.5.471.986.1,1.431-.178.5-.313.938-.568,1.131-.5.165.06.449.844-.4.6-.3-.088-1.224.844.668.609.65-.081.984.851,2.836-.188a1.188,1.188,0,0,1,.531-.172Zm0,4.557v.694c-.24,0-.45-.025-.511-.168-.156-.368.2-.53.511-.526Zm0,1.512V36.9c-.736-.125-1.436.678-1.832.25-.179-.195-1,.126-1.157.228-.7.451-1.389-1.176-.705-.935.275.1,1.328-1.251,2.136-.622a2,2,0,0,0,1.558.144Zm0,4.5v.628H45.543c-.272-.346-.083-.318-.165-.619-.306-1.137,1.115-.148,2.032-.009Zm-9.922.628H32.141c.293-.1.461.1.621-.13.714-1,1.021-.3,1.214-.764.183-.439-.067-.572-.4-.548-.274.021-.319.257-.8.121-1.251-.924,1.194-.407,2.092-.765.389-.155,1.231.367,1.238.376.332.461,1.688.594,1.9.083.351-.843,1.145-.522,1.189-.265.169,1-.415.687-1,.883-.933.24-.766.867-.712.991l.008.018Zm-12.9,0h-.253c-.489-.1-1.06-.632-1.263,0H20.41v-.628a.706.706,0,0,0,.528-.078c1.386-1.023,1.4.087,2.856.087.223,0,1.476-.411,1.113.323a.5.5,0,0,1-.322.3ZM20.41,36.9V35.96a2.364,2.364,0,0,0,.823-.3c.237-.6-.35-.519-.823-.522v-.694a.539.539,0,0,1,.319.09c1.144.945,1.383.06,2.226.12s.136.541.336.792c.781.978,1.945-.258,2.477.175.609.5-.124.745-.413.9-.109,1.069,1.088.575,1.352.673,1.164.433-.4,1.241-1.257.548a1.549,1.549,0,0,0-1.889-.122c-.613.418-1.9-.148-2.11.61-.144.521-.629.8-.751.424-.242-.753,1.18-.756.15-1.561a.978.978,0,0,0-.44-.2Zm0-6.405v-.6c.461-.015.537.441,0,.6Zm0-2.8v-.567c.165-.233.107-.334,0-.385V26c.236-.049.515,0,.5-.248-.037-.532,1.017.011,1.034-.36.031-.674-.743.094-1.027-.3-.257-.358.352-.658.783-.4.413.243.333.057.737-.078.59-.2.291.654.82.6.231-.025.56.148.482.332-.183.424.343.623.417.576.363-.23.867-.03.831.116-.114.462-.931.218-1.216.13-1.014-.312-.8.012-1.591.446-.244.134-1.663-.174-1.4.366.192.391.125.3.009.519-.076.142-.25.106-.38,0ZM34.1,19.338c.372.435,1.873-.249,1.894.726,0,.018-.846.929.185.853a3.518,3.518,0,0,1,.6-.411,1.231,1.231,0,0,1,1.209.2c1.063.867-.353,1.234.341,1.624.92.517.286.884.189.8-.484-.408-1.4.076-1.016.487.971,1.031,1.348-.221,2.517-.149,1.7.1,2.18-1.051,2.3-.329,0,.855-.47.305-.69.713-.351.655.756.886.814.326a.785.785,0,0,1,.622-.756c1.4-.084.734-1.194,1.675-.966.744.179.984-.634.751-.675-.888-.156-.742.1-1.514.361-1.289.436-1.379-.734-3.195-.3-.215-.008-.563-.021-.649.1-.578.8-1.01-.036-.828-.3.748-1.091-.794-.845-.151-1.411.369-.325.355-.048.633.083.568.269,1.286.721,1.5-.275.158-.747-.835.04-1.089-.242-1.111-1.235.084-1.2-1.094-1.634-.92-.337-.665,1.421-2.032,0-.686-.714-1.285.051-1.773.117-.026,0-.553.189-.708.208-.673,0-.319.65-1.305.113-.456-.248-1.3.834.076.7.427-.042.152-.651.737.032Zm2.617,15.921c-.394.058-2.214-1.769-2.42-.041-.02.17-.431.578-1.126.391-.9-.241-2.913-1.317-2.484.357.277,1.076,1.226-.621,1.709.382.294.611,2.471-.334,1.972.908-.075.185-.722-.085-.938.11-.124.112-1.137.727.206.832a4.491,4.491,0,0,1,1.431-.405c1.218,0,1.071-1.315,3.168-.635.64.208,1.009-.329,2.525.15,1.046.331,1.246-1.785-.484-.812a.7.7,0,0,1-.994-.783c.151-1.446-1,.092-1.407-1.459-.05-.19-1.264-.78-1.264-.038,0,.113,1.513.838.106,1.043Zm-4.188-7.966c.8-.316,1.927.21,1.554.416-.735.4-.8,1.872.233,1.135.978-.7.279-2.023,2.059-1.309,1.165.467,1.427-.715,2.918.048,1.74.891,2.435-.406,1.815-1.3a1.375,1.375,0,0,0-1.513.146c-.227.244-.5-.448-.517-.534-.073-.479-.664-.616-.837-.67-1.576-.491-.77,1.368-2.73-.4-.835-.755-1.813,1.089-.217.641.652-.184.4,2.166-1.022.7-.5-.515-.919-.072-1.142-.008a7.161,7.161,0,0,1-.742.451c-.793.176-2.243-.473-2.243.8.007.193.045.347.816-.181.294-.2.475.5,1.568.072ZM24.07,30.746c-.822.168-.982,1.016-2.263.942-.176-.01-.816-.235-.723.233.011.056.869.854,1.161.632s.5.039.77-.492c.283-.555.618-.007,1.38-.282s1.021.426.466.624c-.686.244-.453.942.2.438.134-.1.592-.717.932-.55a1.42,1.42,0,0,0,1.025-.054c.615-.473,1.412.354,1.747.054.2-.179.346-.351-.048-.54-.3-.146-.937.177-.821-.5.029-.168.385.036.423-.943.02-.5.908.34.908-.577,0-.227-.26-.2-.714.107-.971.651-1.217-.437-1.875-.022-.3.191-1.478-.872-1.387.31.04.51,1.044-.084,1.044.321,0,.356-.536.343-.791.135-.5-.407-.4.172-1.037.078a1.141,1.141,0,0,0-.4.082Zm3.023-11.693c.01-.286-.639-.6-1.071.054-.159.239-.767-.154-1.318.258-.044.034-.087.065-.13.093-.813.539-1.437.126-2.44.189-.3.018-.731.116-.42.642a1.1,1.1,0,0,0,1.721.232c.481-.667,1.122.083,1.835-.225.026-.011,1.356.147.055,1.047-.238.165-.385,1.629.428.45.789-1.143.723.37,2.317-.647.648-.414,1.405.118,1.955.461.949.593,1.55-.554.625-.649-.169-.017-1.389.516-1-.723.112-.358-.449-.787-.9-.5-.6.385-1.7.593-1.659-.686Z"/>
          </g>
        </g>
      </g>
    </g>
    <g id="그룹_8918" data-name="그룹 8918" transform="translate(631.412 245.353)">
      <g id="다각형_22" data-name="다각형 22" transform="translate(24.89 21.753)">
        <path id="패스_33606" data-name="패스 33606" class="cls-9" d="M30.907,30.592h-.025a.529.529,0,0,1-.37-.172L29.57,29.4l-.944,1.022a.533.533,0,0,1-.755.03.537.537,0,0,1-.172-.365V30.08l-.056-1.371-1.38.184a.532.532,0,0,1-.6-.452v-.006a.542.542,0,0,1,.11-.4l.844-1.082-1.166-.724a.538.538,0,0,1-.189-.726.524.524,0,0,1,.361-.258l1.351-.3-.42-1.292a.539.539,0,0,1,.345-.674.533.533,0,0,1,.164-.026.526.526,0,0,1,.248.062l1.237.641.53-1.277a.534.534,0,0,1,.494-.329.516.516,0,0,1,.2.041.526.526,0,0,1,.29.291l.529,1.273,1.24-.642a.533.533,0,0,1,.753.641l-.42,1.3,1.358.3a.535.535,0,0,1,.171.975l-1.17.726.844,1.082a.532.532,0,0,1-.089.748.535.535,0,0,1-.332.117.507.507,0,0,1-.069-.005L31.5,28.711,31.44,30.08A.531.531,0,0,1,30.907,30.592Z" transform="translate(-24.869 -21.732)"/>
        <path id="패스_33607" data-name="패스 33607" class="cls-10" d="M29.591,22.394a.214.214,0,0,0-.2.131l-.575,1.385-.007.016a.213.213,0,0,1-.289.091l-1.343-.7a.212.212,0,0,0-.1-.025.225.225,0,0,0-.065.011.214.214,0,0,0-.139.269l.457,1.406.006.02a.215.215,0,0,1-.165.254l-1.472.321a.211.211,0,0,0-.146.1.216.216,0,0,0,.078.293l1.27.788.019.013a.214.214,0,0,1,.036.3l-.918,1.176a.219.219,0,0,0-.044.162.215.215,0,0,0,.212.184l.03,0,1.5-.2.019,0h.01a.212.212,0,0,1,.213.205l.061,1.489a.218.218,0,0,0,.069.148.213.213,0,0,0,.3-.012l1.022-1.107.013-.013a.209.209,0,0,1,.144-.057.212.212,0,0,1,.157.069l1.021,1.107a.213.213,0,0,0,.149.068h.01a.212.212,0,0,0,.213-.2L31.2,28.6l0-.019a.213.213,0,0,1,.211-.186l.029,0,1.5.2.028,0a.216.216,0,0,0,.134-.047.212.212,0,0,0,.035-.3l-.918-1.176-.013-.019a.214.214,0,0,1,.068-.294l1.27-.788a.218.218,0,0,0,.1-.137.214.214,0,0,0-.165-.253L32,25.267l-.02-.006a.213.213,0,0,1-.138-.268l.458-1.416a.212.212,0,0,0-.013-.164A.215.215,0,0,0,32,23.32l-1.343.7-.016.007a.221.221,0,0,1-.082.016.215.215,0,0,1-.2-.13l-.575-1.383a.209.209,0,0,0-.114-.115.221.221,0,0,0-.082-.016m0-.641a.851.851,0,0,1,.79.53l.4.949.93-.482a.855.855,0,0,1,1.206,1.024l-.312.966,1.012.22a.855.855,0,0,1,.655,1.013v.007a.857.857,0,0,1-.379.539l-.869.539.623.8a.852.852,0,0,1-.139,1.2.855.855,0,0,1-.533.187.971.971,0,0,1-.111-.007L31.823,29.1l-.043,1.018a.849.849,0,0,1-.853.819h-.038a.853.853,0,0,1-.591-.274l-.707-.766-.708.766a.856.856,0,0,1-1.483-.533v-.012l-.042-1.02-1.032.138a.963.963,0,0,1-.114.007.862.862,0,0,1-.847-.732v-.012a.869.869,0,0,1,.175-.64l.624-.8-.862-.534a.86.86,0,0,1-.3-1.159.847.847,0,0,1,.575-.413l1-.218-.311-.956v-.009a.859.859,0,0,1,.556-1.07.832.832,0,0,1,.261-.042.853.853,0,0,1,.393.1l.929.481.4-.955A.855.855,0,0,1,29.591,21.753Z" transform="translate(-24.89 -21.753)"/>
      </g>
      <g id="그룹_8915-2" data-name="그룹 8915-2" transform="translate(28.412 24.205)">
        <path id="다각형_22-2" data-name="다각형 22-2" class="cls-11" d="M29.285,28.185V26.047h1.176Z" transform="translate(-28.109 -23.909)"/>
        <path id="다각형_22-2-2" data-name="다각형 22-2-2" class="cls-12" d="M28.185,26.047h1.176v2.138Z" transform="translate(-28.185 -23.909)"/>
        <path id="다각형_22-3" data-name="다각형 22-3" class="cls-13" d="M30.461,26.185H29.285V24.047Z" transform="translate(-28.109 -24.047)"/>
        <path id="다각형_22-4" data-name="다각형 22-4" class="cls-14" d="M29.361,24.047v2.138H28.185Z" transform="translate(-28.185 -24.047)"/>
      </g>
    </g>
  </g>
</svg>
