<svg xmlns="http://www.w3.org/2000/svg" xmlns:xlink="http://www.w3.org/1999/xlink" width="24" height="23.999" viewBox="0 0 24 23.999">
  <defs>
    <radialGradient id="radial-gradient" cx="0.5" cy="0.5" r="0.5" gradientUnits="objectBoundingBox">
      <stop offset="0" stop-color="#ede0ce"/>
      <stop offset="1" stop-color="#eccba5"/>
    </radialGradient>
  </defs>
  <g id="그룹_9284" data-name="그룹 9284" transform="translate(-17.42 -16.35)">
    <path id="사각형_11791" data-name="사각형 11791" d="M24.91,30.527h21v2a9.234,9.234,0,0,1-9.45,9h-2.1a9.234,9.234,0,0,1-9.45-9v-2Z" transform="translate(-5.99 -1.178)" fill="url(#radial-gradient)"/>
    <rect id="사각형_11794" data-name="사각형 11794" width="5" height="1.2" rx="0.45" transform="translate(26.922 37.352)" fill="#2e2e29"/>
    <path id="패스_33692" data-name="패스 33692" d="M41.42,31.6v.46c0,.57-.67,1.09-1.83,1.54h-.01a31.372,31.372,0,0,1-10.16,1.36A31.371,31.371,0,0,1,19.26,33.6h-.01c-1.16-.45-1.83-.97-1.83-1.54V31.6a1.756,1.756,0,0,1,1-1.58V27.17a10.87,10.87,0,0,1,.13-1.52,11,11,0,0,1,21.73,0,9.815,9.815,0,0,1,.14,1.55v2.83A1.731,1.731,0,0,1,41.42,31.6Z" fill="#22221e"/>
    <g id="그룹_8956" data-name="그룹 8956">
      <path id="패스_33693" data-name="패스 33693" d="M24.77,21.93v-.66H23.31v.66H21.42v1.09h5.19V21.93Zm-.1,1.36H23.39c-1.05,0-1.74.56-1.74,1.53s.69,1.53,1.74,1.53h1.28c1.06,0,1.73-.56,1.73-1.53S25.73,23.29,24.67,23.29Zm-.15,2.01h-.98a.427.427,0,0,1-.49-.48c0-.31.15-.47.49-.47h.98c.34,0,.5.16.5.47A.435.435,0,0,1,24.52,25.3Zm-.67,2.71V26.75H22.4v2.43h6.46V28.01Zm3.48-6.51v2.4h-.76v1.18h.76v2.09h1.45V21.5Z" fill="#fff"/>
      <path id="패스_33694" data-name="패스 33694" d="M35.8,21.5v.75H34.76v-.63H33.31v.98H31.59v-.98H30.15v4.15h4.61v-.59H35.8v.8h1.46V21.5Zm-2.49,3.13H31.59V23.7h1.72Zm2.49-.6H34.76V23.4H35.8Zm-.14,2.15H32.29c-1.18,0-1.76.61-1.76,1.55s.58,1.54,1.76,1.54h3.37c1.18,0,1.76-.61,1.76-1.54S36.84,26.18,35.66,26.18Zm-.18,1.95H32.46c-.34,0-.5-.13-.5-.4s.16-.4.5-.4h3.02c.36,0,.5.13.5.4S35.84,28.13,35.48,28.13Z" fill="#fff"/>
    </g>
    <path id="패스_33695" data-name="패스 33695" d="M40.42,27.2v2.07H38.46V25.65h1.82A9.815,9.815,0,0,1,40.42,27.2Z" fill="#fff"/>
    <path id="패스_33696" data-name="패스 33696" d="M20.42,25.65v3.62h-2v-2.1a10.87,10.87,0,0,1,.13-1.52Z" fill="#fff"/>
    <path id="패스_33697" data-name="패스 33697" d="M0,0H16V1.2H0Z" transform="translate(21.42 31.27)" fill="#fff"/>
  </g>
</svg>
