<svg xmlns="http://www.w3.org/2000/svg" width="32" height="32" viewBox="0 0 32 32">
  <path id="cheatdot-logo" d="M27.2,0H4.8A4.8,4.8,0,0,0,0,4.8V27.2A4.8,4.8,0,0,0,4.8,32H27.2A4.8,4.8,0,0,0,32,27.2V4.8A4.8,4.8,0,0,0,27.2,0ZM5.717,6.208A1.144,1.144,0,0,1,6.861,5.064H13.3a1.143,1.143,0,0,1,1.142,1.144v6.438A1.143,1.143,0,0,1,13.3,13.79H6.861a1.144,1.144,0,0,1-1.144-1.144ZM10.08,26.936a4.766,4.766,0,1,1,4.765-4.766A4.771,4.771,0,0,1,10.08,26.936Zm16.6-3.286a1.142,1.142,0,0,1-1.142,1.144h-1v1A1.143,1.143,0,0,1,23.4,26.936H20.44A1.142,1.142,0,0,1,19.3,25.792v-1h-1a1.142,1.142,0,0,1-1.142-1.144V20.69A1.142,1.142,0,0,1,18.3,19.547h1v-1A1.142,1.142,0,0,1,20.44,17.4H23.4a1.143,1.143,0,0,1,1.142,1.142v1h1a1.143,1.143,0,0,1,1.142,1.142ZM25.638,13.79H18.2a1.145,1.145,0,0,1-.99-1.715L20.93,5.637a1.143,1.143,0,0,1,1.979,0l3.718,6.438A1.144,1.144,0,0,1,25.638,13.79Z" fill="#ff8d00"/>
</svg>
