<svg xmlns="http://www.w3.org/2000/svg" width="160" height="136" viewBox="0 0 160 136">
  <g id="layer1" transform="translate(-388 -104)">
    <path id="path27804" d="M394,105H530.325v20.293H394Z" transform="translate(14.293 2.382)" fill="#593e3e" fill-rule="evenodd"/>
    <path id="path27806" d="M394,111H530.325V221.086H394Z" transform="translate(14.293 15.532)" fill="#c2acac" fill-rule="evenodd"/>
    <path id="path27808" d="M394,111V221.086h82.607C509.342,191.785,529.571,148.7,528.29,111Z" transform="translate(14.293 15.532)" fill="#eee8e8" fill-rule="evenodd"/>
    <path id="path27810" d="M405.137,104a8.534,8.534,0,0,0-8.482,8.5V225.833a2.827,2.827,0,1,0,5.655,0V112.5a2.789,2.789,0,0,1,2.827-2.833H532.371A2.789,2.789,0,0,1,535.2,112.5V121H416.447a2.833,2.833,0,0,0,0,5.667H535.2V231.5a2.789,2.789,0,0,1-2.828,2.833H393.827a2.833,2.833,0,0,0,0,5.667H532.371a8.534,8.534,0,0,0,8.482-8.5v-119a8.534,8.534,0,0,0-8.482-8.5Z" transform="translate(7.146 0)" fill-rule="evenodd"/>
    <path id="path27812" d="M441.382,107a3.382,3.382,0,1,0,3.382,3.382A3.382,3.382,0,0,0,441.382,107Z" transform="translate(92.875 4.917)" fill="#ed7161" fill-rule="evenodd"/>
    <path id="path27814" d="M437.382,107a3.382,3.382,0,1,0,3.382,3.382A3.382,3.382,0,0,0,437.382,107Z" transform="translate(87.111 4.917)" fill="#ecba16" fill-rule="evenodd"/>
    <path id="path27816" d="M433.382,107a3.382,3.382,0,1,0,3.382,3.382A3.382,3.382,0,0,0,433.382,107Z" transform="translate(81.347 4.917)" fill="#42b05c" fill-rule="evenodd"/>
    <path id="path27818" d="M391.382,150a3.382,3.382,0,1,0,3.382,3.382A3.382,3.382,0,0,0,391.382,150Z" transform="translate(0 83.236)" fill-rule="evenodd"/>
    <path id="path27820" d="M399.382,110a3.382,3.382,0,1,0,3.382,3.382A3.382,3.382,0,0,0,399.382,110Z" transform="translate(19.057 14.293)" fill-rule="evenodd"/>
    <rect id="rect4427" width="98" height="74" rx="2" transform="translate(424.427 142.018)" fill="#ce7200"/>
    <path id="path27648" d="M410.764,120A6.749,6.749,0,0,0,404,126.764v60.879a6.749,6.749,0,0,0,6.764,6.764H477c10.112-10.022,15.673-22.774,15.682-35.962,0-14.343-6.573-28.125-18.324-38.446Z" transform="translate(22.318 21.903)" fill="#ff8d00" fill-rule="evenodd"/>
    <rect id="rect8552" width="98" height="20" transform="translate(424.427 143.372)" fill="#dedd00"/>
    <path id="path8626" d="M404,120v20.293h83.167a17.668,17.668,0,0,0,.37-3.382c0-6.073-3.172-11.993-9.059-16.908Z" transform="translate(23.086 23.079)" fill="#ff0" fill-rule="evenodd"/>
    <g id="path4429" transform="translate(421.092 138.268)">
      <path id="path7162" d="M404,130h98.082" transform="translate(-400.618 -106.325)" fill="#918383" fill-rule="evenodd"/>
      <path id="path7164" d="M413.146,123A10.2,10.2,0,0,0,403,133.146v20.009a3.382,3.382,0,1,0,6.764,0v-3.1h91.318V170.35a3.382,3.382,0,1,0,6.764,0v-37.2A10.2,10.2,0,0,0,497.7,123Zm0,6.764H497.7a3.3,3.3,0,0,1,3.382,3.382v10.146H409.764V133.146A3.3,3.3,0,0,1,413.146,129.764Zm-6.764,33.822A3.382,3.382,0,0,0,403,166.968v27.057a10.2,10.2,0,0,0,10.146,10.146H497.7a10.2,10.2,0,0,0,10.146-10.146V183.879a3.382,3.382,0,1,0-6.764,0v10.146a3.3,3.3,0,0,1-3.382,3.382H413.146a3.3,3.3,0,0,1-3.382-3.382V166.968A3.382,3.382,0,0,0,406.382,163.586Z" transform="translate(-403 -123)" fill-rule="evenodd"/>
    </g>
    <path id="path8873" d="M414.546,129.007a3.382,3.382,0,0,0-3.1,2.715l-3.382,16.911a3.382,3.382,0,0,0,3.316,4.043h10.146v6.764a3.382,3.382,0,1,0,6.764,0V142.529a3.382,3.382,0,1,0-6.764,0v3.382H415.5l2.576-12.868a3.386,3.386,0,0,0-3.534-4.036Z" transform="translate(35.883 42.223)" fill-rule="evenodd"/>
    <path id="rect5745" d="M423.764,130a6.75,6.75,0,0,1,6.764,6.764v10.146a6.764,6.764,0,0,1-13.529,0V136.764A6.749,6.749,0,0,1,423.764,130Z" transform="translate(52.686 45.23)" fill="#ffc343" fill-rule="evenodd"/>
    <path id="path7169" d="M426.147,129A10.2,10.2,0,0,0,416,139.146v10.146a10.146,10.146,0,1,0,20.293,0V139.146a3.382,3.382,0,1,0-6.764,0v10.146a3.382,3.382,0,1,1-6.764,0V139.146a3.3,3.3,0,0,1,3.382-3.382,3.382,3.382,0,0,0,0-6.764Z" transform="translate(50.236 42.667)" fill-rule="evenodd"/>
    <path id="path69785" d="M430.546,129.007a3.382,3.382,0,0,0-3.1,2.715l-3.382,16.911a3.382,3.382,0,0,0,3.316,4.043h10.146v6.764a3.382,3.382,0,1,0,6.764,0V142.529a3.382,3.382,0,1,0-6.764,0v3.382H431.5l2.576-12.868a3.386,3.386,0,0,0-3.534-4.036Z" transform="translate(64.589 42.223)" fill-rule="evenodd"/>
  </g>
</svg>
