<?xml version="1.0" encoding="utf-8"?>
<!-- Generator: Adobe Illustrator 27.0.0, SVG Export Plug-In . SVG Version: 6.00 Build 0)  -->
<svg version="1.1" id="레이어_1" xmlns="http://www.w3.org/2000/svg" xmlns:xlink="http://www.w3.org/1999/xlink" x="0px"
	 y="0px" viewBox="0 0 30 16" style="enable-background:new 0 0 30 16;" xml:space="preserve">
<style type="text/css">
	.st0{fill:#FF8D00;}
	.st1{fill:#FFFFFF;}
</style>
<path class="st0" d="M26,16H4c-2.21,0-4-1.79-4-4V4c0-2.21,1.79-4,4-4h22c2.21,0,4,1.79,4,4v8C30,14.21,28.21,16,26,16z"/>
<g>
	<path class="st1" d="M7.82,8.24l0.74,1.6h0.05C8.57,9.45,8.53,9.03,8.48,8.57s-0.06-0.9-0.06-1.32V4.3h1.4v7.4h-1.5L6.18,7.74
		L5.43,6.15H5.38c0.03,0.4,0.07,0.82,0.12,1.27C5.54,7.87,5.56,8.3,5.56,8.73v2.97h-1.4V4.3h1.51L7.82,8.24z"/>
	<path class="st1" d="M16.19,5.53h-3.06v1.71h2.6v1.24h-2.6v1.98h3.17v1.24h-4.65V4.3h4.54V5.53z"/>
	<path class="st1" d="M19.17,7.91c0.05,0.4,0.11,0.79,0.17,1.18c0.06,0.39,0.12,0.78,0.17,1.18h0.04c0.07-0.4,0.15-0.8,0.23-1.19
		s0.16-0.78,0.24-1.17l0.86-3.61h1.26L23,7.91c0.08,0.38,0.16,0.77,0.23,1.17c0.08,0.4,0.16,0.79,0.24,1.2h0.05
		c0.05-0.4,0.11-0.8,0.17-1.19s0.11-0.78,0.17-1.17l0.58-3.61h1.41l-1.37,7.4h-1.84L21.8,8.04c-0.06-0.3-0.12-0.59-0.17-0.87
		c-0.05-0.28-0.1-0.56-0.15-0.84h-0.04c-0.05,0.28-0.1,0.56-0.16,0.84c-0.05,0.28-0.1,0.57-0.16,0.87l-0.81,3.66H18.5l-1.43-7.4
		h1.51L19.17,7.91z"/>
</g>
</svg>
