<svg xmlns="http://www.w3.org/2000/svg" xmlns:xlink="http://www.w3.org/1999/xlink" width="14" height="16" viewBox="0 0 14 16">
  <defs>
    <clipPath id="clip-path">
      <path id="패스_15" data-name="패스 15" d="M-22,2.24H-8v16H-22Z" transform="translate(25)" fill="#ff8d00"/>
    </clipPath>
  </defs>
  <g id="hot-svgrepo-com" transform="translate(-3 -2.24)" clip-path="url(#clip-path)">
    <path id="패스_14" data-name="패스 14" d="M14.153,7a3.449,3.449,0,0,1-2.361,3.5,5.516,5.516,0,0,0,.268-4.032c-.572-1.7-2.482-3.024-3.753-3.747a.653.653,0,0,0-.982.553A4.789,4.789,0,0,1,5.712,6.826,7.737,7.737,0,0,0,3,12.257a5.09,5.09,0,0,0,4.941,5.249c-3.328-3.272-.824-6.059-.824-6.059.7,4.789,4.108,6.059,5.765,6.059,1.409,0,4.118-1.012,4.118-5.221A9.174,9.174,0,0,0,15.036,6.7a.5.5,0,0,0-.883.3" transform="translate(0 -0.076)" fill="#ff8d00"/>
  </g>
</svg>
