<svg xmlns="http://www.w3.org/2000/svg" width="24" height="24" viewBox="0 0 24 24">
  <path id="light-config-svgrepo-com" d="M20.51,21.183l.782-.766c3.62.117,3.675-.009,3.834-.375l.994-2.387.074-.226-.081-.2c-.043-.1-.174-.417-2.434-2.541V13.571c2.608-2.477,2.552-2.6,2.4-2.967l-.99-2.412c-.149-.362-.205-.5-3.8-.406l-.782-.8A17.047,17.047,0,0,0,20.39,3.47l-.1-.225L17.7,2.13c-.381-.171-.515-.233-2.955,2.388l-1.1-.016c-2.513-2.645-2.632-2.6-3.008-2.447l-2.4.958c-.376.15-.509.2-.363,3.8L7.1,7.579c-3.618-.117-3.673.01-3.831.375l-1,2.388-.078.229.082.2c.043.1.169.411,2.434,2.539v1.114c-2.608,2.477-2.551,2.6-2.4,2.967L3.3,19.805c.151.369.205.5,3.8.408l.782.8A17.111,17.111,0,0,0,8,24.529l.1.227,2.6,1.121c.378.156.509.212,2.943-2.4l1.1.014c2.516,2.649,2.645,2.6,3.013,2.451l2.4-.956C20.53,24.837,20.662,24.785,20.51,21.183ZM10.2,15.591a4.231,4.231,0,0,1,2.459-5.477,4.329,4.329,0,0,1,5.57,2.391,4.229,4.229,0,0,1-2.389,5.507A4.379,4.379,0,0,1,10.2,15.591Z" transform="translate(-2.195 -1.998)" fill="#444"/>
</svg>
