<svg xmlns="http://www.w3.org/2000/svg" width="24" height="24" viewBox="0 0 24 24">
  <path id="game-svgrepo-com_3_" data-name="game-svgrepo-com (3)" d="M19.747,10.659H13.333c-.013-.854-.013-1.694,0-2.561V7.912c.027-1.027.053-1.627.48-2.041a2.39,2.39,0,0,1,1.387-.48l.2-.013a3.591,3.591,0,0,0,1.72-.4,2.941,2.941,0,0,0,1.4-1.947,5.737,5.737,0,0,0,.12-1.747,1.334,1.334,0,1,0-2.667.093,4.037,4.037,0,0,1-.04,1.014.588.588,0,0,1-.12.267,2.523,2.523,0,0,1-.547.067l-.24.013A4.814,4.814,0,0,0,11.96,3.951a5.11,5.11,0,0,0-1.293,3.92v.173c-.013.88-.013,1.747,0,2.614H4.253A4.274,4.274,0,0,0,0,14.914v4.827A4.274,4.274,0,0,0,4.253,24H19.747A4.274,4.274,0,0,0,24,19.741V14.913a4.274,4.274,0,0,0-4.253-4.253Zm-10.413,8H8V20a1.333,1.333,0,1,1-2.667,0V18.662H4a1.334,1.334,0,0,1,0-2.667H5.333V14.661a1.333,1.333,0,1,1,2.667,0v1.334H9.333a1.334,1.334,0,0,1,0,2.667Zm5.333,2.667A1.334,1.334,0,1,1,16,20,1.334,1.334,0,0,1,14.667,21.329Zm0-5.335A1.334,1.334,0,1,1,16,14.661,1.334,1.334,0,0,1,14.667,15.994ZM20,21.329A1.334,1.334,0,1,1,21.333,20,1.334,1.334,0,0,1,20,21.329Zm0-5.335a1.334,1.334,0,1,1,1.333-1.334A1.334,1.334,0,0,1,20,15.994Z" transform="translate(0 0.004)" fill="#444"/>
</svg>
