<svg xmlns="http://www.w3.org/2000/svg" width="4" height="14" viewBox="0 0 4 14">
  <g id="more-svgrepo-com" transform="translate(-22)">
    <path id="패스_9" data-name="패스 9" d="M24,3.733a1.939,1.939,0,0,0,2-1.867,2,2,0,0,0-4,0A1.939,1.939,0,0,0,24,3.733Z" transform="translate(0)" fill="#bbb"/>
    <path id="패스_10" data-name="패스 10" d="M24,44a1.871,1.871,0,1,0,2,1.867A1.939,1.939,0,0,0,24,44Z" transform="translate(0 -33.733)" fill="#bbb"/>
    <path id="패스_11" data-name="패스 11" d="M24,22a1.871,1.871,0,1,0,2,1.867A1.939,1.939,0,0,0,24,22Z" transform="translate(0 -16.867)" fill="#bbb"/>
  </g>
</svg>
