<svg id="그룹_37" data-name="그룹 37" xmlns="http://www.w3.org/2000/svg" xmlns:xlink="http://www.w3.org/1999/xlink" width="24" height="23.138" viewBox="0 0 24 23.138">
  <defs>
    <clipPath id="clip-path">
      <rect id="사각형_265" data-name="사각형 265" width="24" height="23.138" fill="#444"/>
    </clipPath>
  </defs>
  <g id="그룹_36" data-name="그룹 36" clip-path="url(#clip-path)">
    <path id="패스_22" data-name="패스 22" d="M18.29,0H1.15A1.167,1.167,0,0,0,0,1.17V17.66a.8.8,0,0,0,1.3.62L4.88,15.4a.742.742,0,0,1,.49-.18H18.64a.794.794,0,0,0,.79-.8V1.17A1.152,1.152,0,0,0,18.29,0M10.84,11.9l-.87-1.12c-.11.02-.21.04-.32.05s-.21.02-.32.02a2.988,2.988,0,0,1-1.24-.25,2.624,2.624,0,0,1-.97-.71,3.347,3.347,0,0,1-.63-1.13,4.633,4.633,0,0,1-.23-1.5,4.57,4.57,0,0,1,.23-1.49,3.3,3.3,0,0,1,.63-1.12,2.689,2.689,0,0,1,.97-.69,3.147,3.147,0,0,1,1.24-.23,3.131,3.131,0,0,1,1.25.24,2.689,2.689,0,0,1,.97.69,3.159,3.159,0,0,1,.63,1.11,4.57,4.57,0,0,1,.23,1.49,4.434,4.434,0,0,1-.33,1.79,2.981,2.981,0,0,1-.92,1.21l1.38,1.64Zm-1.51-7a1.417,1.417,0,0,0-1.22.62,2.907,2.907,0,0,0-.45,1.74,3.837,3.837,0,0,0,.12.99,2.528,2.528,0,0,0,.33.76,1.6,1.6,0,0,0,.53.48,1.452,1.452,0,0,0,1.91-.48,2.309,2.309,0,0,0,.34-.76A3.85,3.85,0,0,0,11,7.26a2.908,2.908,0,0,0-.44-1.74A1.422,1.422,0,0,0,9.33,4.9M22.86,7.03H21.72V17.52a.8.8,0,0,1-1.3.62l-.5-.4a.768.768,0,0,0-.5-.18H8v1.17A1.167,1.167,0,0,0,9.15,19.9h9.48a.768.768,0,0,1,.5.18l3.58,2.88A.792.792,0,0,0,24,22.34V8.2a1.146,1.146,0,0,0-1.14-1.17" fill="#444"/>
  </g>
</svg>
