<svg xmlns="http://www.w3.org/2000/svg" width="79.996" height="79.996" viewBox="0 0 79.996 79.996">
  <g id="game-svgrepo-com_1_" data-name="game-svgrepo-com (1)" transform="translate(0 0.006)">
    <path id="패스_3" data-name="패스 3" d="M63.33,33.337H43.364c-.033-3.532-.033-11.23,0-13.1v-.467c.067-2.566.133-4.065,1.2-5.1a5.977,5.977,0,0,1,3.466-1.2l.5-.033a8.981,8.981,0,0,0,4.3-1,7.348,7.348,0,0,0,3.5-4.865,14.326,14.326,0,0,0,.3-4.365,3.335,3.335,0,0,0-6.666.233,10.081,10.081,0,0,1-.1,2.533,1.469,1.469,0,0,1-.3.666,6.311,6.311,0,0,1-1.367.167l-.6.033a12.038,12.038,0,0,0-7.666,3.032,12.764,12.764,0,0,0-3.233,9.8v.433c-.033,1.866-.033,9.564,0,13.23H16.666A16.664,16.664,0,0,0,0,50V63.328A16.664,16.664,0,0,0,16.666,79.99H63.33A16.664,16.664,0,0,0,80,63.328V50A16.664,16.664,0,0,0,63.33,33.337Zm10,29.991a10.028,10.028,0,0,1-10,10H16.666a10.028,10.028,0,0,1-10-10V50a10.028,10.028,0,0,1,10-10H63.33a10.028,10.028,0,0,1,10,10Z" transform="translate(0 0)" fill="#fff"/>
    <path id="패스_4" data-name="패스 4" d="M25.713,24.846a3.619,3.619,0,0,1-3.619,3.619H18.475v3.619a3.619,3.619,0,1,1-7.238,0V28.465H7.619a3.619,3.619,0,1,1,0-7.238h3.619V17.609a3.619,3.619,0,1,1,7.238,0v3.619h3.619A3.619,3.619,0,0,1,25.713,24.846Z" transform="translate(8.952 31.307)" fill="#fff"/>
    <circle id="타원_1" data-name="타원 1" cx="3.6" cy="3.6" r="3.6" transform="translate(59.088 46.583)" fill="#fff"/>
    <circle id="타원_2" data-name="타원 2" cx="3.6" cy="3.6" r="3.6" transform="translate(59.088 59.74)" fill="#fff"/>
    <circle id="타원_3" data-name="타원 3" cx="3.6" cy="3.6" r="3.6" transform="translate(46.66 46.583)" fill="#fff"/>
    <circle id="타원_4" data-name="타원 4" cx="3.6" cy="3.6" r="3.6" transform="translate(46.66 59.74)" fill="#fff"/>
  </g>
</svg>
