<svg xmlns="http://www.w3.org/2000/svg" width="12" height="14" viewBox="0 0 12 14">
  <g id="edit-pen-write-svgrepo-com" transform="translate(-4 -1.879)">
    <path id="패스_5" data-name="패스 5" d="M15.319,2.5a2.472,2.472,0,0,0-3.286,0L5.254,8.729a2.015,2.015,0,0,0-.587.953l-.644,2.367a.646.646,0,0,0,.2.649.79.79,0,0,0,.707.18L7.5,12.285a2.29,2.29,0,0,0,1.037-.539l6.78-6.225A2.012,2.012,0,0,0,15.319,2.5Z" transform="translate(0)" fill="#fff"/>
    <path id="패스_6" data-name="패스 6" d="M4,20.745A.745.745,0,0,1,4.744,20H15.165a.745.745,0,0,1,0,1.491H4.744A.745.745,0,0,1,4,20.745Z" transform="translate(0 -5.612)" fill="#fff"/>
  </g>
</svg>
